<?xml version="1.0" encoding="iso-8859-1"?>
<!-- Uploaded to: SVG Repo, www.svgrepo.com, Generator: SVG Repo Mixer Tools -->
<svg height="800px" width="800px" version="1.1" id="Layer_1" xmlns="http://www.w3.org/2000/svg" xmlns:xlink="http://www.w3.org/1999/xlink" 
	 viewBox="0 0 512 512" xml:space="preserve">
<path style="fill:#005ECE;" d="M255.999,7.604c-112.9,0-204.165,91.874-204.165,204.165v110.616
	c0,37.138,16.646,65.272,16.785,65.507c24.794,36.404,78.91,96.526,174.168,115.45c5.915,0.929,15.204,1.734,25.526,0.182
	c95.819-18.721,150.195-79.114,175.067-115.632c0.139-0.234,16.785-28.369,16.785-65.507V211.769
	C460.165,99.478,368.9,7.604,255.999,7.604z"/>
<g>
	<path style="fill:#00479B;" d="M155.427,387.891c-0.139-0.234-16.785-28.369-16.785-65.507V211.769
		c0-97.471,68.77-179.544,160.761-199.513c-13.987-3.037-28.505-4.652-43.405-4.652c-112.9,0-204.165,91.874-204.165,204.165
		v110.616c0,37.138,16.646,65.272,16.785,65.507c24.794,36.404,78.91,96.526,174.168,115.45c5.915,0.929,15.204,1.734,25.526,0.182
		c10.896-2.129,21.251-4.802,31.092-7.912C222.697,471.37,177.471,420.257,155.427,387.891z"/>
	<path style="fill:#00479B;" d="M406.489,141.384c-7.206-15.342-16.706-29.475-28.236-42.006c-2.844-3.09-2.643-7.901,0.447-10.744
		c3.09-2.844,7.901-2.644,10.744,0.447c12.579,13.671,22.945,29.094,30.81,45.838c1.785,3.801,0.175,8.383-3.65,10.115
		C411.122,147.517,407.784,144.14,406.489,141.384z"/>
	<path style="fill:#00479B;" d="M417.099,171.053c-0.589-3.062-1.626-6.064-2.563-9.042c-1.26-4.007,0.966-8.275,4.972-9.535
		c4.007-1.262,8.275,0.966,9.535,4.972c1.023,3.252,1.965,6.575,2.8,9.877c1.03,4.072-1.437,8.206-5.507,9.236
		C425.711,176.718,418.472,178.186,417.099,171.053z"/>
</g>
<g>
	<path style="fill:#FFFFFF;" d="M220.447,199.224c33.432,15.425,48.03,55.031,32.605,88.464s-55.031,48.03-88.464,32.605
		c-33.432-15.425-98.501-78.319-83.076-111.751S187.015,183.799,220.447,199.224z"/>
	<path style="fill:#FFFFFF;" d="M291.553,199.224c-33.432,15.425-48.03,55.031-32.605,88.464s55.031,48.03,88.464,32.605
		c33.432-15.425,98.501-78.319,83.076-111.751C415.063,175.109,324.985,183.799,291.553,199.224z"/>
	<path style="fill:#FFFFFF;" d="M194.983,316.19c0,0-62.775,121.361,61.74,121.361s58.779-121.361,58.779-121.361H194.983z"/>
</g>
<path style="fill:#BDDBFF;" d="M138.642,303.603v-91.889c0-8.857,0.575-17.585,1.677-26.154
	c-27.088,0.616-51.446,6.974-58.806,22.927C69.54,234.436,106.06,278.129,138.642,303.603z"/>
<path style="fill:#2D2D30;" d="M200.359,225.54c17.165,7.795,24.761,28.027,16.966,45.191
	c-7.795,17.164-28.027,24.761-45.191,16.966c-17.165-7.795-61.009-44.488-53.215-61.652S183.195,217.745,200.359,225.54z"/>
<path style="fill:#1D1D1F;" d="M143.251,226.047c2.099-5.338,9.254-8.032,18.16-9.198c-19.132-1.812-38.199-0.258-42.493,9.198
	c-7.795,17.165,36.051,53.857,53.215,61.652c8.643,3.925,18.063,3.944,26.282,0.807
	C197.762,288.257,131.643,255.578,143.251,226.047z"/>
<path style="fill:#2D2D30;" d="M311.641,225.54c-17.165,7.795-24.76,28.027-16.966,45.191c7.794,17.164,28.027,24.761,45.191,16.966
	c17.165-7.795,61.009-44.488,53.215-61.652C385.287,208.881,328.806,217.745,311.641,225.54z"/>
<path style="fill:#1D1D1F;" d="M319.008,270.737c-7.795-17.164-0.199-37.397,16.966-45.191c7.709-3.501,23.349-7.216,38.948-8.693
	c-20.367-2.667-51.338,3.271-63.28,8.693c-17.165,7.795-24.761,28.027-16.966,45.191c7.502,16.519,26.523,24.168,43.242,17.773
	C329.815,285.418,322.878,279.259,319.008,270.737z"/>
<g>
	<path style="fill:#2D2D30;" d="M289.29,322.932c0,18.385-14.905,21.491-33.29,21.491c-18.385,0-33.29-3.105-33.29-21.491
		c0-18.385,14.905-60.259,33.29-60.259S289.29,304.546,289.29,322.932z"/>
	<path style="fill:#2D2D30;" d="M283.391,401.311H228.61c-9.502,0-17.277-7.774-17.277-17.277l0,0
		c0-9.502,7.774-17.277,17.277-17.277h54.781c9.502,0,17.277,7.774,17.277,17.277l0,0
		C300.667,393.536,292.893,401.311,283.391,401.311z"/>
</g>
<g>
	<path style="fill:#1D1D1F;" d="M247.043,322.932c0-14.092,8.756-41.98,21.124-54.239c-3.769-3.735-7.873-6.02-12.166-6.02
		c-18.385,0-33.29,41.874-33.29,60.259c0,18.385,14.905,21.491,33.29,21.491c4.296,0,8.397-0.174,12.166-0.668
		C255.801,342.133,247.043,337.022,247.043,322.932z"/>
	<path style="fill:#1D1D1F;" d="M235.665,384.034L235.665,384.034c0-9.502,7.774-17.277,17.277-17.277H228.61
		c-9.502,0-17.277,7.774-17.277,17.277l0,0c0,9.502,7.774,17.277,17.277,17.277h24.333
		C243.44,401.311,235.665,393.536,235.665,384.034z"/>
</g>
<path style="fill:#BDDBFF;" d="M51.835,309.853v12.531c0,6.244,0.479,12.225,1.261,17.87c0.683-0.022,63.161,3.276,63.161,61.057
	c0,11.707-3.315,22.652-9.047,31.956c7.034,6.691,14.814,13.391,23.367,19.888c10.15-14.738,16.097-32.596,16.097-51.844
	C146.674,309.853,52.936,309.814,51.835,309.853z"/>
<g>
	<path style="fill:#FFFFFF;" d="M460.165,309.853v12.531c0,6.244-0.479,12.225-1.261,17.87c-0.683-0.022-63.161,1.924-63.161,61.057
		c0,11.707,3.315,22.652,9.047,31.956c-7.034,6.691-14.814,13.391-23.367,19.888c-10.15-14.738-16.097-32.596-16.097-51.844
		C365.326,309.853,459.064,309.814,460.165,309.853z"/>
	<path style="fill:#FFFFFF;" d="M152.064,36.087v77.152c0,12.161,9.95,22.111,22.111,22.111l0,0c12.161,0,22.111-9.95,22.111-22.111
		V16.509C180.663,21.292,165.844,27.904,152.064,36.087z"/>
</g>
<path style="fill:#BDDBFF;" d="M152.064,36.087v77.152c0,5.262,1.865,10.107,4.963,13.914c9.764-21.353,23.103-40.753,39.26-57.42
	V16.509C180.663,21.292,165.844,27.904,152.064,36.087z"/>
<path style="fill:#FFFFFF;" d="M337.824,135.351L337.824,135.351c12.161,0,22.111-9.95,22.111-22.111V36.087
	c-13.779-8.184-28.6-14.795-44.224-19.579v96.731C315.712,125.401,325.663,135.351,337.824,135.351z"/>
<path d="M256.001,0c-116.77,0-211.77,94.999-211.77,211.769v110.617c0,38.831,18.104,69.787,18.104,69.787
	c68.961,106.141,179.272,118.68,179.272,118.68c3.828,0.601,8.912,1.148,14.746,1.148c4.057,0,8.478-0.265,13.091-0.958
	c0,0,43.795-11.176,63.756-20.256c3.823-1.739,5.512-6.247,3.774-10.07c-1.739-3.823-6.249-5.512-10.071-3.773
	c-18.832,8.566-38.977,14.986-59.881,19.083c-9.186,1.359-17.494,0.663-22.904-0.175c-42.514-8.47-76.595-25.459-103.295-44.656
	c8.824-15.108,13.456-32.206,13.456-49.885c0-29.266-9.05-52.839-26.898-70.063c-22.676-21.885-53.613-27.263-67.94-28.576v-90.903
	c0-66.992,33.696-126.253,85.021-161.754v63.225c0,16.385,13.33,29.716,29.716,29.716s29.715-13.33,29.715-29.716V22.232
	c16.602-4.569,34.073-7.024,52.109-7.024s35.505,2.455,52.109,7.024v91.006c0,16.385,13.33,29.716,29.716,29.716
	s29.715-13.33,29.715-29.716V50.014c51.325,35.501,85.021,94.762,85.021,161.754v90.908c-14.327,1.314-45.265,6.686-67.94,28.571
	c-17.848,17.225-26.898,40.798-26.898,70.063c0,17.7,4.645,34.819,13.489,49.941c-6.878,4.945-14.233,9.738-22.096,14.271
	c-3.638,2.097-4.888,6.746-2.79,10.385c2.097,3.639,6.813,4.997,10.385,2.79c71.646-44.257,93.21-86.93,93.21-86.93
	c0.729-1.229,17.848-30.553,17.848-69.384V211.769C467.769,94.999,372.769,0,256.001,0z M62.434,349.231
	c15.934,3.348,46.219,14.638,46.219,52.08c0,6.575-1.218,13.05-3.551,19.126C92.097,407.117,70.464,388.056,62.434,349.231z
	 M117.485,342.844c14.322,14.196,21.583,33.867,21.583,58.467c0,14.325-3.603,28.191-10.457,40.564
	c-4.161-3.37-8.112-6.775-11.857-10.184c4.659-9.418,7.106-19.801,7.106-30.379c0-19.275-6.29-35.131-18.695-47.13
	c-14.964-14.473-34.778-19.242-45.205-20.793c-0.33-3.561-0.522-15.477-0.522-15.477C72.182,319.193,98.575,324.098,117.485,342.844
	z M188.684,113.238c0,7.999-6.508,14.508-14.507,14.508c-7.999,0-14.508-6.508-14.508-14.508V40.487
	c9.238-5.216,18.932-9.716,29.016-13.402V113.238z M352.332,113.238c0,7.999-6.508,14.508-14.508,14.508
	s-14.507-6.508-14.507-14.508V27.084c10.084,3.686,19.777,8.186,29.016,13.402V113.238z M372.931,401.311
	c0-24.6,7.261-44.271,21.583-58.467c18.912-18.746,45.304-23.65,58.047-24.933c0,0-0.19,11.849-0.513,15.379
	c-10.46,1.411-30.364,5.928-45.217,20.293c-12.403,11.997-18.692,28.054-18.692,47.728c0,10.599,2.457,21.001,7.133,30.434
	c-3.748,3.416-7.7,6.819-11.854,10.185C376.545,429.544,372.931,415.657,372.931,401.311z M406.914,420.482
	c-2.345-6.088-3.568-12.579-3.568-19.17c0-21.135,8.876-36.456,26.383-45.535c7.102-3.683,14.361-5.659,19.874-6.718
	C444.579,379.945,419.696,407.365,406.914,420.482z"/>
<path d="M256.001,255.069c-25.023,0-40.894,47.719-40.894,67.864c0,29.095,29.709,29.095,40.894,29.095s40.894,0,40.894-29.095
	C296.894,302.787,281.024,255.069,256.001,255.069z M256.001,336.819c-23.794,0-25.686-6.018-25.686-13.887
	c0-18.597,15.102-52.656,25.686-52.656c10.585,0,25.686,34.059,25.686,52.656C281.686,330.8,279.795,336.819,256.001,336.819z"/>
<path d="M168.989,294.621c5.47,2.483,11.269,3.742,17.237,3.742c16.342,0,31.268-9.611,38.023-24.488
	c4.609-10.151,4.989-21.489,1.072-31.926c-3.918-10.437-11.667-18.724-21.817-23.333c-10.628-4.827-34.772-10.036-55.245-10.036
	c-19.748,0-31.948,4.818-36.264,14.321c-4.915,10.824,1.397,25.232,18.76,42.826C142.704,277.835,158.785,289.987,168.989,294.621z
	 M125.842,229.189c0.848-1.868,6.625-5.401,22.415-5.401c17.857,0,39.731,4.485,48.957,8.676
	c13.319,6.048,19.015,21.707,13.186,35.123c-8.474,19.505-31.643,14.767-35.124,13.186c-7.398-3.359-22.026-13.901-33.699-25.73
	C127.771,241.054,124.603,231.917,125.842,229.189z"/>
<path d="M325.778,298.364c5.966,0,11.765-1.259,17.234-3.742c10.204-4.633,26.284-16.786,38.235-28.895
	c17.362-17.594,23.675-32.002,18.76-42.826c-4.315-9.503-16.516-14.321-36.264-14.321c-20.473,0-44.616,5.209-55.245,10.035
	c-10.151,4.609-17.899,12.896-21.817,23.333c-3.919,10.437-3.537,21.776,1.072,31.926c6.755,14.874,21.679,24.487,38.022,24.488
	C325.776,298.364,325.776,298.364,325.778,298.364z M301.599,267.587c-5.495-13.556-0.133-29.076,13.186-35.123
	c9.226-4.189,31.099-8.676,48.957-8.676c15.791,0,21.568,3.532,22.415,5.401c1.239,2.728-1.929,11.865-15.736,25.855
	c-11.674,11.829-26.301,22.371-33.699,25.73C333.243,282.354,309.059,285.99,301.599,267.587z"/>
<path d="M228.609,359.153c-13.72,0-24.881,11.162-24.881,24.881c0,13.72,11.162,24.881,24.881,24.881h54.781
	c13.72,0,24.881-11.162,24.881-24.881c0-13.72-11.162-24.881-24.881-24.881H228.609z M293.064,384.034
	c0,5.334-4.339,9.673-9.673,9.673H228.61c-5.334,0-9.673-4.339-9.673-9.673c0-5.334,4.339-9.673,9.673-9.673h54.781
	C288.724,374.361,293.064,378.7,293.064,384.034z"/>
<path d="M102.872,269.168c-3.138,2.791-3.418,7.598-0.627,10.736c1.173,1.318,2.208,2.794,3.573,3.924
	c4.56,3.773,9.282,1.744,10.747,0.378c3.072-2.863,3.241-7.675,0.378-10.747c-1.127-1.21-2.241-2.431-3.336-3.663
	C110.815,266.657,106.01,266.377,102.872,269.168z"/>
<path d="M182.052,415.413c13.289,19.735,38.412,29.742,74.67,29.742c36.128,0,60.993-9.943,73.905-29.553
	c16.586-25.19,9.021-59.501,0.559-82.491c6.681-1.061,13.177-3.038,19.411-5.914c18.496-8.534,44.185-29.55,62.472-51.108
	c16.83-19.84,34.711-48.216,24.323-70.732c-10.388-22.516-43.582-27.328-69.599-27.399c-0.185,0-0.365,0-0.551,0
	c-28.141,0-60.501,5.884-78.876,14.363c-13.505,6.23-24.748,16.386-32.367,28.923c-7.619-12.537-18.862-22.693-32.367-28.923
	c-18.495-8.534-51.162-14.404-79.426-14.362c-26.017,0.071-59.211,4.883-69.599,27.399c-6.632,14.373-2.209,33.621,12.789,55.664
	c2.361,3.47,7.091,4.373,10.563,2.009c3.472-2.362,4.372-7.092,2.009-10.564c-11.662-17.141-15.766-31.609-11.554-40.739
	c5.325-11.542,26.196-18.481,55.831-18.562c26.248-0.079,56.314,5.259,73.013,12.963c14.975,6.908,26.455,19.89,31.498,35.614
	c1.009,3.147,3.936,5.282,7.241,5.282c3.305,0,6.231-2.135,7.241-5.282c5.043-15.725,16.523-28.706,31.498-35.614
	c16.698-7.705,46.714-13.068,73.013-12.963c29.634,0.081,50.506,7.02,55.831,18.562c5.326,11.542-2.94,31.924-22.11,54.524
	c-17.007,20.049-40.547,39.432-57.247,47.137c-7.583,3.499-15.652,5.325-23.987,5.426c-2.541,0.03-4.899,1.329-6.284,3.46
	s-1.613,4.814-0.609,7.148c6.632,15.417,20.353,53.859,4.58,77.817c-9.922,15.068-30.513,22.709-61.203,22.709
	c-30.887,0-51.767-7.748-62.057-23.028c-16.179-24.026-3.442-62.309,2.786-77.653c0.935-2.306,0.684-4.922-0.673-7.008
	c-1.358-2.085-3.649-3.374-6.136-3.451c-7.917-0.247-15.611-2.07-22.87-5.419c-9.608-4.433-22.219-13.237-34.598-24.156
	c-3.149-2.778-7.955-2.476-10.732,0.673c-2.778,3.149-2.477,7.955,0.673,10.732c13.44,11.854,27.395,21.535,38.286,26.56
	c5.93,2.736,12.095,4.662,18.423,5.76C171.914,355.847,165.056,390.173,182.052,415.413z"/>
</svg>